HIERARCHY
ROOT Hips
{
	OFFSET 0.000000 0.000000 0.000000
	CHANNELS 6 Xposition Yposition Zposition Zrotation Yrotation Xrotation 
	JOINT LHipJoint
	{
		OFFSET 0.000000 0.000000 0.000000
		CHANNELS 3 Zrotation Yrotation Xrotation
		JOINT LeftUpLeg
		{
			OFFSET 1.363060 -1.794630 0.839290
			CHANNELS 3 Zrotation Yrotation Xrotation
			JOINT LeftLeg
			{
				OFFSET 2.448110 -6.726130 0.000000
				CHANNELS 3 Zrotation Yrotation Xrotation
				JOINT LeftFoot
				{
					OFFSET 2.562200 -7.039590 0.000000
					CHANNELS 3 Zrotation Yrotation Xrotation
					JOINT LeftToeBase
					{
						OFFSET 0.157640 -0.433110 2.322550
						CHANNELS 3 Zrotation Yrotation Xrotation
						End Site
						{
							OFFSET 0.000000 0.000000 0.000000
						}
					}
				}
			}
		}
	}
	JOINT RHipJoint
	{
		OFFSET 0.000000 0.000000 0.000000
		CHANNELS 3 Zrotation Yrotation Xrotation
		JOINT RightUpLeg
		{
			OFFSET -1.305520 -1.794630 0.839290
			CHANNELS 3 Zrotation Yrotation Xrotation
			JOINT RightLeg
			{
				OFFSET -2.542530 -6.985550 0.000000
				CHANNELS 3 Zrotation Yrotation Xrotation
				JOINT RightFoot
				{
					OFFSET -2.568260 -7.056230 0.000000
					CHANNELS 3 Zrotation Yrotation Xrotation
					JOINT RightToeBase
					{
						OFFSET -0.164730 -0.452590 2.363150
						CHANNELS 3 Zrotation Yrotation Xrotation
						End Site
						{
							OFFSET 0.000000 0.000000 0.000000
						}
					}
				}
			}
		}
	}
	JOINT LowerBack
	{
		OFFSET 0.000000 0.000000 0.000000
		CHANNELS 3 Zrotation Yrotation Xrotation
		JOINT Spine
		{
			OFFSET 0.028270 2.035590 -0.193380
			CHANNELS 3 Zrotation Yrotation Xrotation
			JOINT Spine1
			{
				OFFSET 0.056720 2.048850 -0.042750
				CHANNELS 3 Zrotation Yrotation Xrotation
				JOINT Neck
				{
					OFFSET 0.000000 0.000000 0.000000
					CHANNELS 3 Zrotation Yrotation Xrotation
					JOINT Neck1
					{
						OFFSET -0.054170 1.746240 0.172020
						CHANNELS 3 Zrotation Yrotation Xrotation
						JOINT Head
						{
							OFFSET 0.104070 1.761360 -0.123970
							CHANNELS 3 Zrotation Yrotation Xrotation
							End Site
							{
								OFFSET 0.000000 0.000000 0.000000
							}
						}
					}
				}
				JOINT LeftShoulder
				{
					OFFSET 0.000000 0.000000 0.000000
					CHANNELS 3 Zrotation Yrotation Xrotation
					JOINT LeftArm
					{
						OFFSET 3.362410 1.200890 -0.311210
						CHANNELS 3 Zrotation Yrotation Xrotation
						JOINT LeftForeArm
						{
							OFFSET 4.983000 -0.000000 -0.000000
							CHANNELS 3 Zrotation Yrotation Xrotation
							JOINT LeftHand
							{
								OFFSET 3.483560 -0.000000 -0.000000
								CHANNELS 3 Zrotation Yrotation Xrotation
								JOINT LeftFingerBase
								{
									OFFSET 0.000000 0.000000 0.000000
									CHANNELS 3 Zrotation Yrotation Xrotation
									JOINT LeftHandIndex1
									{
										OFFSET 0.715260 -0.000000 -0.000000
										CHANNELS 3 Zrotation Yrotation Xrotation
										End Site
										{
											OFFSET 0.000000 0.000000 0.000000
										}
									}
								}
								JOINT LThumb
								{
									OFFSET 0.000000 0.000000 0.000000
									CHANNELS 3 Zrotation Yrotation Xrotation
									End Site
									{
										OFFSET 0.000000 0.000000 0.000000
									}
								}
							}
						}
					}
				}
				JOINT RightShoulder
				{
					OFFSET 0.000000 0.000000 0.000000
					CHANNELS 3 Zrotation Yrotation Xrotation
					JOINT RightArm
					{
						OFFSET -3.136600 1.374050 -0.404650
						CHANNELS 3 Zrotation Yrotation Xrotation
						JOINT RightForeArm
						{
							OFFSET -5.241900 -0.000000 -0.000000
							CHANNELS 3 Zrotation Yrotation Xrotation
							JOINT RightHand
							{
								OFFSET -3.444170 -0.000000 -0.000000
								CHANNELS 3 Zrotation Yrotation Xrotation
								JOINT RightFingerBase
								{
									OFFSET 0.000000 0.000000 0.000000
									CHANNELS 3 Zrotation Yrotation Xrotation
									JOINT RightHandIndex1
									{
										OFFSET -0.622530 -0.000000 -0.000000
										CHANNELS 3 Zrotation Yrotation Xrotation
										End Site
										{
											OFFSET 0.000000 0.000000 0.000000
										}
									}
								}
								JOINT RThumb
								{
									OFFSET 0.000000 0.000000 0.000000
									CHANNELS 3 Zrotation Yrotation Xrotation
									End Site
									{
										OFFSET 0.000000 0.000000 0.000000
									}
								}
							}
						}
					}
				}
			}
		}
	}
}
MOTION
Frames: 6
Frame Time: 0.008333
-0.718355 18.307810 5.677489 -5.262836 -1.154851 -0.045436 1.736454 3.962154 3.509458 -9.330359 -8.618510 -6.404867 1.384478 7.620894 24.971279 -0.217684 4.449890 -12.969385 8.554900 -16.512600 -54.537800 -2.989483 -4.110197 2.605723 21.707160 3.345826 7.631390 0.449854 0.969300 1.671195 0.387074 -6.223583 -13.973417 -0.394400 4.032300 -11.167500 3.074356 1.150168 -5.159784 3.210327 0.356280 21.929046 -3.448434 0.791724 -14.486369 -1.093510 -2.208559 -24.890269 4.186864 -2.694203 24.299948 0.672500 -0.696700 8.212700 2.056106 -7.171112 0.221480 -90.378079 13.009244 20.860502 29.125711 -37.868019 -8.752504 0.580123 0.217656 4.215530 5.897926 -27.653433 -2.506400 -7.125000 0.000000 0.000000 -14.743500 2.715400 14.524400 -4.605768 9.181060 2.931813 93.758280 -14.044719 19.038542 -33.688322 41.156038 -10.165052 1.464764 -3.204665 12.869142 1.681338 -39.695561 0.343000 7.125000 0.000000 0.000000 40.286300 -62.301600 -18.520500 
-0.717276 18.307221 5.681118 -5.302399 -1.178267 -0.036362 1.736381 3.958787 3.498518 -9.298883 -8.631138 -6.390852 1.387506 7.633016 24.999987 -0.220040 4.475018 -13.013191 8.563700 -16.518600 -54.568700 -2.992453 -4.105430 2.592385 21.751541 3.359613 7.655569 0.449943 0.968614 1.671244 0.384913 -6.213778 -13.975967 -0.401700 4.068900 -11.270600 3.131730 1.172829 -5.153105 3.200381 0.393178 21.795799 -3.473858 0.800841 -14.453364 -1.040285 -2.214718 -24.925408 4.074824 -2.691630 24.362047 0.641600 -0.703300 8.225300 2.031883 -7.175331 0.234190 -90.305682 13.023017 20.892804 29.174861 -37.904617 -8.777395 0.579362 0.222309 4.176158 5.946194 -27.569989 -2.523000 -7.125000 0.000000 0.000000 -14.713600 2.787000 14.473100 -4.587595 9.187616 2.946768 93.772672 -14.074906 19.008128 -33.732799 41.185218 -10.188234 1.468835 -3.202936 12.919760 1.808586 -39.730936 0.270400 7.125000 0.000000 0.000000 40.457900 -62.303800 -18.615800 
-0.715903 18.306927 5.684454 -5.343025 -1.205216 -0.025939 1.735112 3.957003 3.491824 -9.261075 -8.623664 -6.387875 1.389816 7.641532 25.018471 -0.213896 4.465930 -13.057731 8.563500 -16.518500 -54.567900 -2.995605 -4.101428 2.582836 21.794946 3.378663 7.675837 0.450030 0.968395 1.671475 0.380984 -6.197904 -13.986946 -0.398500 4.053200 -11.226400 3.199080 1.195207 -5.174422 3.190634 0.427597 21.707490 -3.518122 0.807815 -14.417572 -1.103126 -2.261416 -24.986634 4.148228 -2.758235 24.452215 0.652900 -0.726100 8.251600 2.023530 -7.182675 0.244987 -90.220897 13.023470 20.959127 29.225092 -37.946785 -8.806663 0.581044 0.224300 4.062600 5.946344 -27.614418 -2.525900 -7.125000 0.000000 0.000000 -14.715500 2.743200 14.487200 -4.564432 9.189123 2.957695 93.804450 -14.097528 18.974478 -33.791362 41.229536 -10.221635 1.469077 -3.201724 12.943068 1.854568 -39.801705 0.243900 7.125000 0.000000 0.000000 40.593700 -62.348800 -18.732700 
-0.714922 18.306927 5.687004 -5.361275 -1.217058 -0.005083 1.728123 3.954621 3.488654 -9.233492 -8.601702 -6.413909 1.392686 7.648985 25.034431 -0.207176 4.442933 -13.066865 8.558200 -16.514800 -54.549200 -3.003811 -4.099787 2.576892 21.819436 3.391319 7.672460 0.450189 0.968455 1.671663 0.376781 -6.182584 -14.003407 -0.386600 3.992700 -11.056000 3.256344 1.208034 -5.212882 3.114739 0.451128 21.658944 -3.515533 0.812387 -14.382488 -1.057368 -2.249789 -25.011525 4.093749 -2.740352 24.428852 0.637300 -0.721800 8.248500 2.018863 -7.185273 0.250005 -90.138314 13.031251 21.025658 29.316518 -38.024392 -8.857281 0.581958 0.228373 3.930100 5.954373 -27.629342 -2.530600 -7.125000 0.000000 0.000000 -14.711900 2.725200 14.488400 -4.545164 9.189180 2.961453 93.806645 -14.102878 19.001365 -33.880523 41.304483 -10.273676 1.474678 -3.199154 12.863504 1.938757 -39.942468 0.194700 7.125000 0.000000 0.000000 40.854100 -62.436600 -18.959200 
-0.713647 18.306829 5.688770 -5.364711 -1.198265 -0.006867 1.725700 3.952924 3.486071 -9.235583 -8.631894 -6.400591 1.393477 7.653227 25.045333 -0.209996 4.461338 -13.087619 8.554300 -16.512200 -54.535500 -3.006206 -4.099433 2.573290 21.820519 3.369774 7.677566 0.450133 0.968301 1.671910 0.373026 -6.169011 -14.017224 -0.384600 3.982600 -11.027800 3.264974 1.202988 -5.211914 3.079540 0.448319 21.619721 -3.490663 0.810095 -14.370367 -0.922774 -2.203157 -24.973673 3.894561 -2.663846 24.303416 0.590700 -0.705500 8.213400 2.003924 -7.182141 0.250941 -90.092377 13.052411 21.029166 29.430536 -38.123316 -8.921372 0.582486 0.233376 3.884230 6.033254 -27.639844 -2.568900 -7.125000 0.000000 0.000000 -14.666500 2.702400 14.446800 -4.543280 9.189084 2.960978 93.770899 -14.096364 19.061879 -33.936494 41.349820 -10.304193 1.473381 -3.196217 12.802998 1.873887 -39.983933 0.231200 7.125000 0.000000 0.000000 40.846200 -62.482200 -18.998600 
-0.712077 18.306534 5.690438 -5.349459 -1.162610 -0.002134 1.725176 3.947411 3.475933 -9.261945 -8.686716 -6.379423 1.392707 7.655557 25.049472 -0.207778 4.464676 -13.123832 8.553500 -16.511600 -54.532600 -3.006787 -4.098296 2.562913 21.799807 3.333293 7.675427 0.450033 0.966960 1.671507 0.377427 -6.185589 -13.999300 -0.396100 4.041200 -11.192500 3.236829 1.198175 -5.163175 3.074647 0.447370 21.503572 -3.473350 0.810679 -14.365179 -0.938268 -2.203044 -24.926265 3.916576 -2.666084 24.189820 0.598200 -0.708600 8.180100 1.989094 -7.183242 0.257043 -90.072271 13.054555 20.974120 29.511879 -38.192891 -8.965573 0.580790 0.233741 3.912729 5.992604 -27.643145 -2.550900 -7.125000 0.000000 0.000000 -14.689100 2.702900 14.470500 -4.523316 9.186949 2.967505 93.716657 -14.121083 19.136417 -33.981435 41.377462 -10.328569 1.467187 -3.193740 12.775851 1.750194 -40.025318 0.301700 7.125000 0.000000 0.000000 40.782000 -62.540600 -19.019000 
